<?xml version="1.0" encoding="UTF-8"?><svg id="_图层_1" xmlns="http://www.w3.org/2000/svg" xmlns:xlink="http://www.w3.org/1999/xlink" viewBox="0 0 198 60"><defs><style>.cls-1{fill:#0888ca;}.cls-1,.cls-2{stroke-width:0px;}.cls-2{fill:#065287;}</style></defs><image width="1024" height="1024" transform="translate(-.18 .22) scale(.06)" xlink:href="logo.png"/><path class="cls-1" d="M65.85,20.3c1.62.99,3.24,1.98,4.87,2.96,0,4.15-.01,8.29-.02,12.44,0,2.17-.69,3.89-2.06,5.17-1.38,1.27-3.11,1.91-5.2,1.91-2.26,0-4.05-.57-5.37-1.7s-1.96-2.81-1.91-5.02l.05-.09h4.74c0,1.17.23,2.02.69,2.56s1.06.81,1.79.81c.66,0,1.23-.32,1.7-.96s.71-1.53.71-2.66v-15.4Z"/><path class="cls-2" d="M83.01,42.46c-.14-.27-.26-.57-.37-.9-.11-.32-.19-.65-.25-.99-.46.67-1.01,1.21-1.67,1.6-.66.4-1.42.6-2.29.6-1.53,0-2.75-.45-3.67-1.34-.92-.89-1.38-2.08-1.38-3.58,0-1.61.59-2.87,1.76-3.76s2.91-1.34,5.22-1.34h1.83v-1.34c0-.8-.16-1.42-.49-1.85-.33-.43-.81-.65-1.46-.65-.55,0-.96.17-1.23.52-.27.34-.41.85-.41,1.51l-4.71-.02-.05-.09c-.06-1.43.54-2.65,1.79-3.65,1.25-1,2.9-1.51,4.94-1.51,1.93,0,3.5.5,4.7,1.5,1.2,1,1.81,2.42,1.81,4.27v6.67c0,.81.06,1.57.19,2.27s.32,1.39.58,2.07h-4.83ZM79.84,39.52c.49,0,.94-.12,1.36-.35s.75-.53.99-.9v-3.03h-1.83c-.74,0-1.28.23-1.61.68-.33.46-.5,1.03-.5,1.73,0,.55.14.99.43,1.34.29.34.67.52,1.16.52Z"/><path class="cls-2" d="M95.68,36.25l.22,1.25h.1l.24-1.25,2.14-10.26h5.09l-5.14,16.47h-4.76l-5.16-16.47h5.09l2.18,10.26Z"/><path class="cls-2" d="M113.91,42.46c-.14-.27-.26-.57-.37-.9-.11-.32-.19-.65-.25-.99-.46.67-1.01,1.21-1.67,1.6-.66.4-1.42.6-2.29.6-1.53,0-2.75-.45-3.67-1.34-.92-.89-1.38-2.08-1.38-3.58,0-1.61.59-2.87,1.76-3.76s2.91-1.34,5.22-1.34h1.83v-1.34c0-.8-.16-1.42-.49-1.85-.33-.43-.81-.65-1.46-.65-.55,0-.96.17-1.23.52-.27.34-.41.85-.41,1.51l-4.71-.02-.05-.09c-.06-1.43.54-2.65,1.79-3.65,1.25-1,2.9-1.51,4.94-1.51,1.93,0,3.5.5,4.7,1.5,1.2,1,1.81,2.42,1.81,4.27v6.67c0,.81.06,1.57.19,2.27s.32,1.39.58,2.07h-4.83ZM110.74,39.52c.49,0,.94-.12,1.36-.35s.75-.53.99-.9v-3.03h-1.83c-.74,0-1.28.23-1.61.68-.33.46-.5,1.03-.5,1.73,0,.55.14.99.43,1.34.29.34.67.52,1.16.52Z"/><path class="cls-1" d="M136.54,32.73h-8.38v6.27h9.85c-.64,1.23-1.28,2.45-1.92,3.68-4.27-.08-8.54-.15-12.81-.23v-22.16h14.7c-.76,1.12-1.52,2.24-2.28,3.36-2.51.03-5.02.07-7.54.1v5.52h8.38v3.45Z"/><path class="cls-2" d="M139.14,34.31c0-2.59.54-4.67,1.61-6.25s2.59-2.37,4.54-2.37c.72,0,1.37.15,1.95.46s1.1.74,1.56,1.31v-8.73h4.86v23.74h-4.23l-.32-1.8c-.48.69-1.04,1.22-1.67,1.57-.63.36-1.36.54-2.17.54-1.95,0-3.46-.74-4.53-2.23-1.07-1.49-1.6-3.46-1.6-5.91v-.32ZM144,34.63c0,1.48.19,2.63.57,3.45.38.82,1.03,1.24,1.94,1.24.5,0,.94-.1,1.32-.31.38-.21.7-.51.96-.91v-7.51c-.26-.46-.58-.81-.96-1.07-.38-.25-.8-.38-1.28-.38-.9,0-1.55.47-1.95,1.42s-.6,2.2-.6,3.75v.32Z"/><path class="cls-2" d="M156.02,33.46c0-2.32.54-4.2,1.62-5.63,1.08-1.43,2.6-2.15,4.57-2.15.82,0,1.55.19,2.18.56s1.18.9,1.64,1.59l.31-1.84h4.23v16.15c0,2.16-.71,3.86-2.12,5.11-1.41,1.24-3.34,1.86-5.8,1.86-.8,0-1.65-.11-2.55-.34-.9-.23-1.74-.54-2.52-.92l.86-3.33c.65.32,1.31.57,1.99.73s1.41.24,2.19.24c1.03,0,1.8-.29,2.31-.86.51-.57.77-1.41.77-2.5v-.94c-.46.53-.98.93-1.56,1.2-.58.27-1.24.4-1.97.4-1.95,0-3.47-.67-4.54-2-1.07-1.33-1.61-3.1-1.61-5.29v-2.02ZM160.88,35.49c0,1.2.19,2.14.58,2.81s1.04,1.01,1.95,1.01c.5,0,.94-.09,1.33-.27.38-.18.7-.45.95-.81v-7.8c-.25-.41-.56-.72-.93-.95-.37-.22-.81-.33-1.31-.33-.91,0-1.57.39-1.97,1.18-.4.79-.6,1.83-.6,3.13v2.03Z"/><path class="cls-2" d="M180.75,42.77c-2.33,0-4.18-.68-5.55-2.04s-2.06-3.07-2.06-5.14v-2.31c0-2.22.64-4.04,1.91-5.46,1.27-1.42,3.03-2.13,5.28-2.13s3.85.64,5.04,1.93c1.19,1.29,1.78,3.04,1.78,5.27v2.65h-9.16v.06c0,1.09.28,1.98.83,2.68s1.39,1.05,2.51,1.05c.91,0,1.66-.09,2.23-.27s1.25-.49,2.04-.91l1.23,2.75c-.64.55-1.49,1-2.56,1.35-1.07.36-2.24.53-3.52.53ZM180.34,29.14c-.78,0-1.35.32-1.71.95s-.57,1.48-.62,2.55h4.37v-.61c0-.92-.16-1.63-.48-2.13s-.84-.76-1.56-.76Z"/></svg>